<svg xmlns="http://www.w3.org/2000/svg"><style>:root svg:not(:target){display:none}</style><svg fill="none" id="check" viewBox="0 0 26 26"><path d="M11 17.718 5.3 11.27l-1.05 1.187L11 20.094 22.25 7.366 21.2 6.094 11 17.718Z" fill="#68B738"></path></svg><svg fill="none" id="email-stroke" viewBox="0 0 20 20"><path d="M1.5 8.5v8h17.004v-8M1.5 3.5h17.004v2l-8.502 6-8.502-6v-2Z" stroke="#000" stroke-linecap="round" stroke-linejoin="round"></path></svg><svg fill="none" id="phone-stroke" viewBox="0 0 20 20"><path d="M10.002 10h8.502m0 0-2.5-2.5m2.5 2.5-2.5 2.5m-7.502-10v5h-3v5h3v5h-2.5C4.5 17.5 3.5 16.5 3.5 15V5c0-1.5 1-2.5 2.5-2.5h2.5Z" stroke="#000" stroke-linecap="round" stroke-linejoin="round"></path></svg></svg>